<svg width="100%" height="100%" viewBox="0 0 64 61" fill="none" xmlns="http://www.w3.org/2000/svg">
<g id="Causes Icon 2">
<path id="Combined Shape" fill-rule="evenodd" clip-rule="evenodd" d="M64 22.125C64 10.4774 54.5949 1 43.0281 1L42.5507 1.00543C38.8955 1.08857 35.3568 2.1256 32.2446 4.01386L31.999 4.166L31.7548 4.01394C28.5081 2.04359 24.7961 1 20.9719 1C9.40585 1 0 10.4777 0 22.125C0 28.1827 2.33334 33.8484 6.53028 37.9964L16.974 48.3658L18.3831 46.9465L7.93781 36.5755L7.62375 36.2581C4.00572 32.5176 2 27.4982 2 22.125C2 11.5789 10.5138 3 20.9719 3C24.7174 3 28.3409 4.10639 31.4424 6.18674L31.9994 6.56031L32.5564 6.18682L32.9469 5.93184C35.9613 4.01606 39.4388 3 43.0281 3C53.4868 3 62 11.5785 62 22.125C62 27.6628 59.8682 32.815 55.9962 36.643L35.2249 57.2908L36.6349 58.7092L57.4043 38.0634L57.7196 37.7454C61.7717 33.5764 64 28.0432 64 22.125ZM50 22.5675C50 17.8501 46.2951 14 41.7182 14L41.4053 14.0062C39.4278 14.084 37.5471 14.8979 36.0816 16.3124L31.997 20.248L27.9161 16.3102L27.6814 16.0921C26.1735 14.7425 24.2676 14 22.2818 14C17.7049 14 14 17.8501 14 22.5675C14 24.9607 14.8791 27.1631 16.4912 28.7705L26.8085 39.0971L28.2233 37.6835L17.9047 27.3555L17.7049 27.1469C16.6019 25.9408 16 24.3348 16 22.5675C16 18.9378 18.827 16 22.2818 16C23.8496 16 25.3551 16.6188 26.5275 17.7496L31.997 23.0272L37.4701 17.7519L37.6806 17.5574C38.8209 16.5485 40.2419 16 41.7182 16C45.173 16 48 18.9378 48 22.5675C48 24.4464 47.3148 26.1379 46.0278 27.4241L20.8583 52.6086L28.9569 60.7071L30.3711 59.2929L23.686 52.608L47.442 28.8383L47.6644 28.608C49.1873 26.9728 50 24.8622 50 22.5675Z" fill="#2E2B30"/>
</g>
</svg>
