<svg width="100%" height="100%" viewBox="0 0 32 32" fill="none" xmlns="http://www.w3.org/2000/svg">
<g id="Icon / Interface / Volume On">
<path id="Combined Shape" fill-rule="evenodd" clip-rule="evenodd" d="M18 6.25604V26.744L9.894 22H4V12H9L18 6.25604ZM16 23.255V9.74401L11 14H6V20H10.4371L16 23.255ZM20 8.00001C24.6944 8.00001 28.5 11.8056 28.5 16.5C28.5 21.1091 24.8315 24.8613 20.2552 24.9963L20 25V23C23.5899 23 26.5 20.0899 26.5 16.5C26.5 12.9882 23.715 10.1269 20.2331 10.0041L20 10V8.00001ZM24.5 16.5C24.5 14.0147 22.4853 12 20 12V14L20.1644 14.0053C21.4685 14.09 22.5 15.1745 22.5 16.5C22.5 17.8807 21.3807 19 20 19V21L20.2118 20.9951C22.5988 20.8845 24.5 18.9143 24.5 16.5Z" fill="white"/>
</g>
</svg>
