<svg width="22px" height="22px" viewBox="0 0 22 22" version="1.1" xmlns="http://www.w3.org/2000/svg" xmlns:xlink="http://www.w3.org/1999/xlink">
    <g id="Page-1" stroke="none" stroke-width="1" fill="none" fill-rule="evenodd">
        <g id="Group" transform="translate(-5.000000, -5.000000)">
            <polygon id="Bounds" points="0 32 32 32 32 0 0 0"></polygon>
            <path d="M27,19 L27,27 L25,27 L25,26.999 L19,27 L19,25 L25,24.999 L25,19 L27,19 Z M7,19 L7.001,25 L13,25 L13,27 L5,27 L5,25 L5.001,25 L5,19 L7,19 Z M27,5 L27,13 L25,13 L25,7.001 L19,7 L19,5 L27,5 Z M13,5 L13,7 L7.001,7 L7,13 L5,13 L5,5 L13,5 Z" id="Combined-Shape" fill="#FFFFFF"></path>
        </g>
    </g>
</svg>