<svg
    width="64px"
    height="61px"
    viewBox="0 0 64 61"
    version="1.1"
    xmlns="http://www.w3.org/2000/svg"
    xmlns:xlink="http://www.w3.org/1999/xlink"
    >
    <g
        id="Causes-Icon-2"
        stroke="none"
        stroke-width="1"
        fill="none"
        fill-rule="evenodd"
        >
        <path d="M41.7182487,14 C46.2951167,14 50,17.8501145 50,22.5675204 C50,24.8622006 49.1873047,26.9728066 47.664361,28.6079774 L47.4419771,28.8383075 L23.686,52.608 L30.3711043,59.2928925 L28.9568922,60.7071075 L20.8583265,52.6085584 L46.0278024,27.4240553 C47.3148182,26.1379485 48,24.4464388 48,22.5675204 C48,18.937844 45.1729752,16 41.7182487,16 C40.2419471,16 38.8209284,16.5485195 37.6806038,17.5573623 L37.4701373,17.7518932 L31.996997,23.0271983 L26.5275262,17.7495654 C25.3551,16.6187554 23.8496471,16 22.2817513,16 C18.8270248,16 16,18.937844 16,22.5675204 C16,24.3347602 16.6018752,25.9408063 17.7048934,27.1468972 L17.9047254,27.3555364 L28.2233312,37.6835425 L26.8084739,39.0971121 L16.4912328,28.7704693 C14.8791075,27.1630888 14,24.9606781 14,22.5675204 C14,17.8501145 17.7048833,14 22.2817513,14 C24.2676335,14 26.1735468,14.7425376 27.6813912,16.092076 L27.9161174,16.3101856 L31.997,20.248 L36.0816485,16.3124147 C37.5470576,14.8978516 39.4278352,14.0840041 41.4052661,14.0061558 L41.7182487,14 Z M43.0281412,1 C54.5948526,1 64,10.477389 64,22.1249837 C64,28.0431762 61.7717494,33.5763649 57.719553,37.7453892 L57.4042549,38.0633762 L36.6349142,58.7092123 L35.2249242,57.2907877 L55.9961991,36.6430342 C59.8682064,32.8149617 62,27.6628452 62,22.1249837 C62,11.5785472 53.4868429,3 43.0281412,3 C39.4387648,3 35.961316,4.01605953 32.94692,5.93184396 L32.5563928,6.18682173 L31.9993822,6.56031452 L31.4424277,6.18673815 C28.3408977,4.10639155 24.7174,3 20.9718588,3 C10.5138397,3 2,11.5789222 2,22.1249837 C2,27.4981759 4.00571696,32.5176026 7.62375043,36.258053 L7.93780694,36.5755093 L18.3831323,46.9465382 L16.9739753,48.3657902 L6.53027846,37.9963746 C2.33334056,33.8483512 0,28.1826623 0,22.1249837 C0,10.4777478 9.40584641,1 20.9718588,1 C24.7961352,1 28.5081286,2.04358982 31.7547591,4.0139446 L31.999,4.166 L32.2445521,4.01385961 C35.3567561,2.12560445 38.8954975,1.08856798 42.5507358,1.00542649 L43.0281412,1 Z" id="Combined-Shape" fill="#2E2B30" ></path>
    </g>
</svg>