<svg width="25px" height="21px" viewBox="0 0 25 21" version="1.1" xmlns="http://www.w3.org/2000/svg" xmlns:xlink="http://www.w3.org/1999/xlink">
    <g id="Page-1" stroke="none" stroke-width="1" fill="none" fill-rule="evenodd">
        <g id="Group" transform="translate(-4.000000, -6.000000)">
            <polygon id="Bounds" points="0 32 32 32 32 0 0 0"></polygon>
            <path d="M18,6 L18,26.4879733 L9.894,21.7439642 L4,21.7439642 L4,11.7439642 L9,11.7439642 L18,6 Z M16,9.48796423 L11,13.7439642 L6,13.7439642 L6,19.7439642 L10.4371394,19.7439642 L16,22.9989642 L16,9.48796423 Z M27.2928932,12.2928932 L28.7071068,13.7071068 L25.915,16.5 L28.7071068,19.2928932 L27.2928932,20.7071068 L24.5,17.915 L21.7071068,20.7071068 L20.2928932,19.2928932 L23.085,16.5 L20.2928932,13.7071068 L21.7071068,12.2928932 L24.5,15.085 L27.2928932,12.2928932 Z" id="Combined-Shape" fill="#FFFFFF"></path>
        </g>
    </g>
</svg>