<svg width="25px" height="21px" viewBox="0 0 25 21" version="1.1" xmlns="http://www.w3.org/2000/svg" xmlns:xlink="http://www.w3.org/1999/xlink">
    <g id="Page-1" stroke="none" stroke-width="1" fill="none" fill-rule="evenodd">
        <g id="Group" transform="translate(-4.000000, -6.000000)">
            <polygon id="Bounds" points="0 32 32 32 32 0 0 0"></polygon>
            <path d="M18,6.25603577 L18,26.744009 L9.894,22 L4,22 L4,12 L9,12 L18,6.25603577 Z M20,8 C24.6944204,8 28.5,11.8055796 28.5,16.5 C28.5,21.1090673 24.831547,24.8613215 20.2551603,24.9962434 L20,25 L20,23 C23.5898509,23 26.5,20.0898509 26.5,16.5 C26.5,12.9881894 23.7150038,10.1268494 20.2331341,10.004103 L20,10 L20,8 Z M16,9.744 L11,14 L6,14 L6,20 L10.4371394,20 L16,23.255 L16,9.744 Z M20,12 C22.4852814,12 24.5,14.0147186 24.5,16.5 C24.5,18.9142733 22.5987635,20.8844891 20.2118357,20.995102 L20,21 L20,19 C21.3807119,19 22.5,17.8807119 22.5,16.5 C22.5,15.1745166 21.4684641,14.0899613 20.1643757,14.0053177 L20,14 L20,12 Z" id="Combined-Shape" fill="#FFFFFF"></path>
        </g>
    </g>
</svg>  